<?xml version="1.0" encoding="UTF-8" standalone="no"?>
<!DOCTYPE svg PUBLIC "-//W3C//DTD SVG 1.1//EN" "http://www.w3.org/Graphics/SVG/1.1/DTD/svg11.dtd">
<svg width="100%" height="100%" viewBox="0 0 1080 1080" version="1.1" xmlns="http://www.w3.org/2000/svg" xmlns:xlink="http://www.w3.org/1999/xlink" xml:space="preserve" xmlns:serif="http://www.serif.com/" style="fill-rule:evenodd;clip-rule:evenodd;stroke-linecap:round;stroke-linejoin:round;stroke-miterlimit:1.5;">
    <g>
        <g>
            <g>
                <g>
                    <g>
                        <path d="M701.543,407.355L701.543,605.147C701.543,625.43 685.075,641.897 664.792,641.897L442.79,641.897C422.507,641.897 406.039,625.43 406.039,605.147L406.039,407.355C406.039,387.072 422.507,370.605 442.79,370.605L664.792,370.605C685.075,370.605 701.543,387.072 701.543,407.355ZM666.126,407.355C666.126,406.619 665.528,406.022 664.792,406.022L442.79,406.022C442.054,406.022 441.456,406.619 441.456,407.355L441.456,605.147C441.456,605.883 442.054,606.481 442.79,606.481L664.792,606.481C665.528,606.481 666.126,605.883 666.126,605.147L666.126,407.355Z" style="fill:#c96442;"/>
                        <path d="M646.394,382.976C676.852,382.976 701.543,407.667 701.543,438.124L701.543,439.151L406.039,439.151L406.039,438.037C406.039,423.434 411.84,409.429 422.166,399.103C432.492,388.777 446.497,382.976 461.1,382.976C513.994,382.976 593.472,382.976 646.394,382.976Z" style="fill:#c96442;"/>
                    </g>
                    <g>
                        <g>
                            <path d="M491.039,477.057C491.039,483.546 485.77,488.815 479.28,488.815L472.746,488.815C466.256,488.815 460.988,483.546 460.988,477.057C460.988,470.567 466.256,465.298 472.746,465.298L479.28,465.298C485.77,465.298 491.039,470.567 491.039,477.057Z" style="fill:#c96442;"/>
                            <path d="M543.343,477.057C543.343,483.546 538.074,488.815 531.584,488.815L525.05,488.815C518.561,488.815 513.292,483.546 513.292,477.057C513.292,470.567 518.561,465.298 525.05,465.298L531.584,465.298C538.074,465.298 543.343,470.567 543.343,477.057Z" style="fill:#c96442;"/>
                            <path d="M594.968,477.057C594.968,483.546 589.7,488.815 583.21,488.815L576.676,488.815C570.186,488.815 564.918,483.546 564.918,477.057C564.918,470.567 570.186,465.298 576.676,465.298L583.21,465.298C589.7,465.298 594.968,470.567 594.968,477.057Z" style="fill:#c96442;"/>
                            <path d="M646.594,477.535C646.594,484.025 641.326,489.294 634.836,489.294L628.302,489.294C621.812,489.294 616.544,484.025 616.544,477.535C616.544,471.046 621.812,465.777 628.302,465.777L634.836,465.777C641.326,465.777 646.594,471.046 646.594,477.535Z" style="fill:#c96442;"/>
                        </g>
                        <g>
                            <path d="M594.968,521.172C594.968,527.662 589.7,532.931 583.21,532.931L576.676,532.931C570.186,532.931 564.918,527.662 564.918,521.172C564.918,514.683 570.186,509.414 576.676,509.414L583.21,509.414C589.7,509.414 594.968,514.683 594.968,521.172Z" style="fill:#c96442;"/>
                            <path d="M646.594,521.172C646.594,527.662 641.326,532.931 634.836,532.931L628.302,532.931C621.812,532.931 616.544,527.662 616.544,521.172C616.544,514.683 621.812,509.414 628.302,509.414L634.836,509.414C641.326,509.414 646.594,514.683 646.594,521.172Z" style="fill:#c96442;"/>
                            <path d="M491.039,521.172C491.039,527.662 485.77,532.931 479.28,532.931L472.746,532.931C466.256,532.931 460.988,527.662 460.988,521.172C460.988,514.683 466.256,509.414 472.746,509.414L479.28,509.414C485.77,509.414 491.039,514.683 491.039,521.172Z" style="fill:#c96442;"/>
                            <path d="M543.343,521.172C543.343,527.662 538.074,532.931 531.584,532.931L525.05,532.931C518.561,532.931 513.292,527.662 513.292,521.172C513.292,514.683 518.561,509.414 525.05,509.414L531.584,509.414C538.074,509.414 543.343,514.683 543.343,521.172Z" style="fill:#c96442;"/>
                        </g>
                        <g>
                            <path d="M594.968,564.809C594.968,571.299 589.7,576.567 583.21,576.567L576.676,576.567C570.186,576.567 564.918,571.299 564.918,564.809C564.918,558.32 570.186,553.051 576.676,553.051L583.21,553.051C589.7,553.051 594.968,558.32 594.968,564.809Z" style="fill:#c96442;"/>
                            <path d="M646.594,564.809C646.594,571.299 641.326,576.567 634.836,576.567L628.302,576.567C621.812,576.567 616.544,571.299 616.544,564.809C616.544,558.32 621.812,553.051 628.302,553.051L634.836,553.051C641.326,553.051 646.594,558.32 646.594,564.809Z" style="fill:#c96442;"/>
                            <path d="M543.343,564.809C543.343,571.299 538.074,576.567 531.584,576.567L525.05,576.567C518.561,576.567 513.292,571.299 513.292,564.809C513.292,558.32 518.561,553.051 525.05,553.051L531.584,553.051C538.074,553.051 543.343,558.32 543.343,564.809Z" style="fill:#c96442;"/>
                            <path d="M491.039,564.809C491.039,571.299 485.77,576.567 479.28,576.567L472.746,576.567C466.256,576.567 460.988,571.299 460.988,564.809C460.988,558.32 466.256,553.051 472.746,553.051L479.28,553.051C485.77,553.051 491.039,558.32 491.039,564.809Z" style="fill:#c96442;"/>
                        </g>
                    </g>
                    <g>
                        <path d="M484.579,358.337L484.579,386.788C484.579,392.683 479.793,397.469 473.898,397.469C468.003,397.469 463.217,392.683 463.217,386.788L463.217,358.337C463.217,352.442 468.003,347.656 473.898,347.656C479.793,347.656 484.579,352.442 484.579,358.337Z" style="fill:#b6b6b5;"/>
                        <path d="M645.844,358.337L645.844,386.788C645.844,392.683 641.058,397.469 635.163,397.469C629.268,397.469 624.482,392.683 624.482,386.788L624.482,358.337C624.482,352.442 629.268,347.656 635.163,347.656C641.058,347.656 645.844,352.442 645.844,358.337Z" style="fill:#b6b6b5;"/>
                    </g>
                </g>
                <g>
                    <path d="M841.492,592.168C798.261,753.268 632.472,848.99 471.496,805.792C442.215,797.935 414.286,785.71 388.646,769.528L228.115,868.363L311.016,698.982C253.23,624.306 233.674,526.873 258.158,435.631C301.389,274.531 467.178,178.809 628.154,222.006C789.129,265.204 884.723,431.067 841.492,592.168Z" style="fill:none;stroke:#c96442;stroke-width:66.67px;"/>
                </g>
            </g>
        </g>
        <circle cx="540" cy="540" r="540" style="fill:none;"/>
    </g>
</svg>
